<svg width="14" height="14" viewBox="0 0 14 14" xmlns="http://www.w3.org/2000/svg"><title>Close_Icon</title><path d="M13.668.332c.221.22.332.497.332.829 0 .331-.11.607-.332.828L8.658 7l5.01 5.01c.221.222.332.498.332.83 0 .331-.11.607-.332.828a1.125 1.125 0 0 1-.829.332c-.331 0-.607-.11-.828-.332L7 8.658l-5.01 5.01a1.125 1.125 0 0 1-.83.332c-.331 0-.607-.11-.828-.332A1.125 1.125 0 0 1 0 12.84c0-.331.11-.607.332-.828L5.342 7 .332 1.99A1.125 1.125 0 0 1 0 1.16C0 .83.11.554.332.333.552.11.829 0 1.16 0c.331 0 .607.11.828.332L7 5.342l5.01-5.01c.222-.221.498-.332.83-.332.331 0 .607.11.828.332z" fill="#383838" fill-rule="evenodd"/></svg>