<svg width="104" height="121" viewBox="0 0 104 121" xmlns="http://www.w3.org/2000/svg" xmlns:xlink="http://www.w3.org/1999/xlink"><title>enter-otp</title><defs><circle id="a" cx="52" cy="52" r="52"/><linearGradient x1="0%" y1="50%" x2="100.044%" y2="50%" id="c"><stop stop-color="#078473" offset="0%"/><stop stop-color="#077F6F" offset="24%"/><stop stop-color="#067263" offset="50%"/><stop stop-color="#045C50" offset="78%"/><stop stop-color="#03453C" offset="100%"/></linearGradient><linearGradient x1="0%" y1="49.914%" y2="49.914%" id="d"><stop stop-color="#FFF" offset="0%"/><stop stop-color="#FFFAFB" offset="13%"/><stop stop-color="#FDECEF" offset="29%"/><stop stop-color="#FBD5DC" offset="46%"/><stop stop-color="#F9B4C0" offset="63%"/><stop stop-color="#F58A9D" offset="81%"/><stop stop-color="#F15773" offset="100%"/><stop stop-color="#F15672" offset="100%"/></linearGradient><linearGradient x1="3714%" y1="4672.053%" x2="4473%" y2="5089.847%" id="e"><stop stop-color="#FFF" offset="0%"/><stop stop-color="#FFFAFB" offset="13%"/><stop stop-color="#FDECEF" offset="29%"/><stop stop-color="#FBD5DC" offset="46%"/><stop stop-color="#F9B4C0" offset="63%"/><stop stop-color="#F58A9D" offset="81%"/><stop stop-color="#F15773" offset="100%"/><stop stop-color="#F15672" offset="100%"/></linearGradient><linearGradient x1="3856%" y1="1250.88%" x2="4382%" y2="1435.435%" id="f"><stop stop-color="#FFF" offset="0%"/><stop stop-color="#FFFAFB" offset="13%"/><stop stop-color="#FDECEF" offset="29%"/><stop stop-color="#FBD5DC" offset="46%"/><stop stop-color="#F9B4C0" offset="63%"/><stop stop-color="#F58A9D" offset="81%"/><stop stop-color="#F15773" offset="100%"/><stop stop-color="#F15672" offset="100%"/></linearGradient><linearGradient x1="4058%" y1="1633.209%" x2="4309%" y2="1840.897%" id="g"><stop stop-color="#FFF" offset="0%"/><stop stop-color="#FFFAFB" offset="13%"/><stop stop-color="#FDECEF" offset="29%"/><stop stop-color="#FBD5DC" offset="46%"/><stop stop-color="#F9B4C0" offset="63%"/><stop stop-color="#F58A9D" offset="81%"/><stop stop-color="#F15773" offset="100%"/><stop stop-color="#F15672" offset="100%"/></linearGradient><linearGradient x1="8559%" y1="66.837%" x2="8019%" y2="78.349%" id="h"><stop stop-color="#FFF" offset="0%"/><stop stop-color="#FFFAFB" offset="13%"/><stop stop-color="#FDECEF" offset="29%"/><stop stop-color="#FBD5DC" offset="46%"/><stop stop-color="#F9B4C0" offset="63%"/><stop stop-color="#F58A9D" offset="81%"/><stop stop-color="#F15773" offset="100%"/><stop stop-color="#F15672" offset="100%"/></linearGradient><linearGradient x1="0%" y1="50%" y2="50%" id="i"><stop stop-color="#D8D6EB" offset="0%"/><stop stop-color="#C5C4DB" offset="100%"/></linearGradient></defs><g fill="none" fill-rule="evenodd"><g transform="translate(0 17)"><mask id="b" fill="#fff"><use xlink:href="#a"/></mask><use fill="#158473" fill-rule="nonzero" xlink:href="#a"/><g mask="url(#b)" fill-rule="nonzero"><path d="M.26 9.41s8.42 10.86 10.41 30.36l12.41-.44S16.44 9.41.26 9.41z" fill="url(#c)" transform="translate(38 66)"/><path d="M76.65 66.77s-3.45 7.42 1.73 20.53c5.18 13.11 9.14 23.12 9.14 23.12l-27.26 7.76S51.81 87.82 47.49 82l29.16-15.23z" fill="#F1405A"/></g></g><path d="M41.77 93.57S52.62 106.76 62 105.25c9.38-1.51 16.82-18.19 18-24.53 1.18-6.34-38.23 12.85-38.23 12.85z" fill="#F1405A" fill-rule="nonzero"/><path fill="url(#d)" fill-rule="nonzero" style="mix-blend-mode:multiply" d="M59.46 92.78l2.79 5.81-18.21-2.12-2.48-2.66z"/><path d="M18.59 73s2.09 8.52 8.93 11.07l1.73-2.36-2-9.55-8.66.84z" fill="#F1405A" fill-rule="nonzero"/><path d="M18.59 73s2.09 8.52 8.93 11.07l1.73-2.36-2-9.55-8.66.84z" fill="url(#e)" fill-rule="nonzero" style="mix-blend-mode:multiply"/><path d="M18.62 47.26s.5 8.76 6.76 12.52l2.13-2-.26-9.78-8.63-.74zM18.28 60.7s.5 8.76 6.76 12.52l2.13-2-.25-9.76-8.64-.76z" fill="#F1405A" fill-rule="nonzero"/><path d="M18.62 47.26s.5 8.76 6.76 12.52l2.13-2-.26-9.78-8.63-.74z" fill="url(#f)" fill-rule="nonzero" style="mix-blend-mode:multiply"/><path d="M18.28 60.7s.5 8.76 6.76 12.52l2.13-2-.25-9.76-8.64-.76z" fill="url(#g)" fill-rule="nonzero" style="mix-blend-mode:multiply"/><path d="M59.82 20.4s13 34.11 12.12 47.4c-.88 13.29-14.72 8.67-14.72 8.67l2.6-56.07z" fill="#F1405A" fill-rule="nonzero"/><path d="M59.82 20.4s13 34.11 12.12 47.4c-.88 13.29-14.72 8.67-14.72 8.67l2.6-56.07z" fill="url(#h)" fill-rule="nonzero" style="mix-blend-mode:multiply"/><path d="M27 90.32L21.2 9.54A6.19 6.19 0 0 1 26.66 3l30-2.19a6.19 6.19 0 0 1 6.9 5.86l5.38 80.26a6.19 6.19 0 0 1-5.56 6.45l-29.6 2.71A6.19 6.19 0 0 1 27 90.32z" fill="#5E5993" fill-rule="nonzero"/><path fill="#DDDBF6" fill-rule="nonzero" d="M26.14 8.72l32.51-2.73 5.85 78.47-32.91 2.38z"/><path fill="url(#i)" fill-rule="nonzero" d="M58.65 5.88l5.85 78.58-32.91 2.38z"/><rect fill="#8B8A99" fill-rule="nonzero" opacity=".4" style="mix-blend-mode:multiply" transform="rotate(-4.23 47.15 65.245)" x="34.139" y="63.695" width="26.02" height="3.1" rx="1.55"/><rect fill="#8B8A99" fill-rule="nonzero" opacity=".4" style="mix-blend-mode:multiply" transform="rotate(-4.23 47.531 71.12)" x="34.521" y="69.57" width="26.02" height="3.1" rx="1.55"/><path fill="#5E5993" fill-rule="nonzero" d="M38.23 27.38l-8.38.7-.82-8.57 8.42-.66zM38.34 18.77l9.15-.81.82 8.58-9.2.76zM57.63 25.76l-8.39.7-.82-8.58 8.46-.73zM49.35 27.26l8.38-.7 1.1 8.5-9.2.77zM48.75 35.9l-8.38.7-1.1-8.5 9.2-.77zM29.95 28.88l8.39-.7 1.1 8.49-9.21.77zM39.79 46.04l-8.39.7-1.1-8.5 9.2-.76zM40.38 37.4l8.39-.7 1.1 8.5-9.2.77zM59.18 44.42l-8.38.7-1.1-8.49 9.2-.77zM50.9 45.92l8.39-.7.15 8.58-8.25.69zM50.31 54.56l-8.39.7-1.1-8.5 9.2-.77zM31.51 47.54l8.38-.7 1.1 8.5-8.42.7z"/><path fill="#DDDBF6" fill-rule="nonzero" d="M33.72 21.94l-.72.44-.1-.38.84-.55h.47l.34 4h-.53zM42.24 24.82v-.34l.37-.48c1-1.07 1.37-1.63 1.33-2.24a.72.72 0 0 0-.87-.72 1.38 1.38 0 0 0-.83.41l-.24-.34a1.78 1.78 0 0 1 1.11-.51 1.14 1.14 0 0 1 1.34 1.07c.06.75-.43 1.39-1.21 2.29l-.3.33 1.82-.15v.45l-2.52.23zM52 23c.286.139.603.2.92.18a.79.79 0 0 0 .85-.86.9.9 0 0 0-1.11-.72h-.3v-.41h.3a.81.81 0 0 0 .84-.76.61.61 0 0 0-.76-.55 1.49 1.49 0 0 0-.79.33l-.18-.39a1.93 1.93 0 0 1 1-.4 1 1 0 0 1 .57 1.88c.54.03.97.46 1 1A1.29 1.29 0 0 1 53 23.65a2.06 2.06 0 0 1-1.07-.19L52 23zM34.94 35l-.09-1.1L33 34v-.36l1.59-2.73h.59l.21 2.51h.57v.43h-.57l.09 1.1-.54.05zm-.13-1.53l-.11-1.36v-.64c-.1.25-.19.43-.29.62l-.87 1.46 1.27-.08zM45.44 30.28l-1.54.13-.07 1.05a2.17 2.17 0 0 1 .33-.05 1.71 1.71 0 0 1 .89.14c.388.185.643.57.66 1A1.41 1.41 0 0 1 44.32 34a2 2 0 0 1-1-.16l.1-.43c.276.122.579.174.88.15a.89.89 0 0 0 .88-1 1 1 0 0 0-1.24-.8 4.17 4.17 0 0 0-.56.09l.1-2 1.93-.16.03.59zM54.88 29.47a2 2 0 0 0-.41.06 1.65 1.65 0 0 0-1.29 1.55 1.24 1.24 0 0 1 2.26.66 1.36 1.36 0 0 1-1.22 1.54 1.5 1.5 0 0 1-1.57-1.6 2.55 2.55 0 0 1 .53-1.88 2.21 2.21 0 0 1 1.24-.7c.132-.03.265-.05.4-.06l.06.43zm0 2.34A.82.82 0 0 0 54 31a.9.9 0 0 0-.74.56.47.47 0 0 0 0 .25 1 1 0 0 0 1 1.08.85.85 0 0 0 .66-1.08h-.04zM37 40.06v.36l-1.45 3.83h-.57l1.46-3.72-2 .16v-.45zM44.44 42.47a1.16 1.16 0 0 1 .71-1.15 1 1 0 0 1-.72-.85 1.14 1.14 0 0 1 1.16-1.18 1 1 0 0 1 1.26.9 1 1 0 0 1-.59 1c.49.096.856.504.9 1a1.25 1.25 0 0 1-1.28 1.29 1.2 1.2 0 0 1-1.44-1.01zm2.17-.21a1 1 0 0 0-1-.81.88.88 0 0 0-.66.89.75.75 0 0 0 .87.7.73.73 0 0 0 .79-.78zm-1.67-1.9a.83.83 0 0 0 .83.68.8.8 0 0 0 .55-.79.63.63 0 0 0-.74-.6.64.64 0 0 0-.64.72v-.01zM54 42.31a2.29 2.29 0 0 0 .44-.06 1.53 1.53 0 0 0 .81-.46 1.78 1.78 0 0 0 .45-1.12 1.19 1.19 0 0 1-.92.51 1.17 1.17 0 0 1-1.3-1.14 1.39 1.39 0 0 1 1.26-1.55 1.45 1.45 0 0 1 1.48 1.59 2.56 2.56 0 0 1-.54 2 2 2 0 0 1-1.13.64 2.57 2.57 0 0 1-.5.07l-.05-.48zM54 40a.78.78 0 0 0 .85.79.91.91 0 0 0 .76-.49.36.36 0 0 0 0-.2 1 1 0 0 0-.93-1.15A.87.87 0 0 0 54 40zM47.43 50.57c.11 1.37-.33 2.18-1.23 2.25-.9.07-1.39-.63-1.51-2-.12-1.37.41-2.15 1.23-2.22.82-.07 1.41.68 1.51 1.97zm-2.19.25c.09 1.05.46 1.62 1 1.58.54-.04.77-.72.69-1.75-.08-1.03-.39-1.63-1-1.58-.61.05-.78.64-.69 1.75zM37.16 51l-.53.83.93-.2v.42h-.95l.66.7-.33.25-.45-.84-.33.91-.37-.19.53-.81-.91.19v-.42h.92l-.65-.71.32-.25.46.83.31-.9zM54.33 52.34l.06-1.23h-.51v-.37h.57v-.91h-.53v-.37h.59l.06-1.2h.36l-.06 1.2.65-.05.06-1.2h.37l-.06 1.2h.51v.37h-.57v.91h.53v.37h-.59l-.06 1.23h-.37l.07-1.29-.65.05-.06 1.25-.37.04zm1.11-1.69v-.91l-.65.05v.91l.65-.05z"/><circle stroke="#DDDBF6" stroke-width=".25" cx="47.98" cy="90.2" r="3.21"/><path d="M63.1 52.2s4.62 5.49 15.64 9.16c3.1 1 4.71 3 2.34 15.88s-16.16 27.64-19.61 21C53 81.89 70.56 70.63 70.56 70.63s-6.38-2.34-11.44-10.84c-2.59-4.35-.6-10.4 3.98-7.59zM20.83 57.63a6.93 6.93 0 0 1 2.92-.4c2.59.15 8.45.85 9.05 4.22.77 4.34-6.23 6.39-10.9 4.23-4-1.86-5.16-6.46-1.07-8.05zM20.27 68.8a4.66 4.66 0 0 1 4.22-.39c2.57 1 7.38 3.15 7.94 6.3.76 4.29-5.75 4.54-10.43 2.38-3.67-1.71-4.79-6.23-1.73-8.29zM20.39 43.9a4.66 4.66 0 0 1 4.22-.39c2.57 1 7.38 3.15 7.94 6.3.77 4.34-5.74 4.53-10.41 2.37-3.69-1.7-4.81-6.18-1.75-8.28z" fill="#F1405A" fill-rule="nonzero"/><path d="M78.82 56.67A29.82 29.82 0 0 1 92 66M80.27 60a17.89 17.89 0 0 1 5.84 4.79" stroke="#03453C" stroke-linecap="round"/></g></svg>