<svg width="104" height="121" viewBox="0 0 104 121" xmlns="http://www.w3.org/2000/svg" xmlns:xlink="http://www.w3.org/1999/xlink"><title>9-07</title><defs><circle id="a" cx="52" cy="52" r="52"/><linearGradient x1="0%" y1="50%" x2="100.044%" y2="50%" id="c"><stop stop-color="#078473" offset="0%"/><stop stop-color="#077F6F" offset="24%"/><stop stop-color="#067263" offset="50%"/><stop stop-color="#045C50" offset="78%"/><stop stop-color="#03453C" offset="100%"/></linearGradient><linearGradient x1="0%" y1="49.914%" y2="49.914%" id="d"><stop stop-color="#FFF" offset="0%"/><stop stop-color="#FFFAFB" offset="13%"/><stop stop-color="#FDECEF" offset="29%"/><stop stop-color="#FBD5DC" offset="46%"/><stop stop-color="#F9B4C0" offset="63%"/><stop stop-color="#F58A9D" offset="81%"/><stop stop-color="#F15773" offset="100%"/><stop stop-color="#F15672" offset="100%"/></linearGradient><linearGradient x1="3714%" y1="5819.577%" x2="4473%" y2="6341.098%" id="e"><stop stop-color="#FFF" offset="0%"/><stop stop-color="#FFFAFB" offset="13%"/><stop stop-color="#FDECEF" offset="29%"/><stop stop-color="#FBD5DC" offset="46%"/><stop stop-color="#F9B4C0" offset="63%"/><stop stop-color="#F58A9D" offset="81%"/><stop stop-color="#F15773" offset="100%"/><stop stop-color="#F15672" offset="100%"/></linearGradient><linearGradient x1="3856%" y1="2431.797%" x2="4382%" y2="2797.84%" id="f"><stop stop-color="#FFF" offset="0%"/><stop stop-color="#FFFAFB" offset="13%"/><stop stop-color="#FDECEF" offset="29%"/><stop stop-color="#FBD5DC" offset="46%"/><stop stop-color="#F9B4C0" offset="63%"/><stop stop-color="#F58A9D" offset="81%"/><stop stop-color="#F15773" offset="100%"/><stop stop-color="#F15672" offset="100%"/></linearGradient><linearGradient x1="4058%" y1="3190.1%" x2="4309%" y2="3602.024%" id="g"><stop stop-color="#FFF" offset="0%"/><stop stop-color="#FFFAFB" offset="13%"/><stop stop-color="#FDECEF" offset="29%"/><stop stop-color="#FBD5DC" offset="46%"/><stop stop-color="#F9B4C0" offset="63%"/><stop stop-color="#F58A9D" offset="81%"/><stop stop-color="#F15773" offset="100%"/><stop stop-color="#F15672" offset="100%"/></linearGradient><linearGradient x1="8559%" y1="299.663%" x2="8019%" y2="470.354%" id="h"><stop stop-color="#FFF" offset="0%"/><stop stop-color="#FFFAFB" offset="13%"/><stop stop-color="#FDECEF" offset="29%"/><stop stop-color="#FBD5DC" offset="46%"/><stop stop-color="#F9B4C0" offset="63%"/><stop stop-color="#F58A9D" offset="81%"/><stop stop-color="#F15773" offset="100%"/><stop stop-color="#F15672" offset="100%"/></linearGradient><linearGradient x1="0%" y1="50%" y2="50%" id="i"><stop stop-color="#D8D6EB" offset="0%"/><stop stop-color="#C5C4DB" offset="100%"/></linearGradient><linearGradient x1="0%" y1="50%" x2="99.962%" y2="50%" id="j"><stop stop-color="#FFF" offset="0%"/><stop stop-color="#FBFAFC" offset="12%"/><stop stop-color="#F1ECF5" offset="26%"/><stop stop-color="#E0D5E9" offset="40%"/><stop stop-color="#C8B4D7" offset="56%"/><stop stop-color="#A98AC1" offset="72%"/><stop stop-color="#8457A6" offset="88%"/><stop stop-color="#652D90" offset="100%"/></linearGradient></defs><g fill="none" fill-rule="evenodd"><g transform="translate(0 17)"><mask id="b" fill="#fff"><use xlink:href="#a"/></mask><use fill="#158473" fill-rule="nonzero" xlink:href="#a"/><g mask="url(#b)" fill-rule="nonzero"><path d="M.26 9.41s8.42 10.86 10.41 30.36l12.41-.44S16.44 9.41.26 9.41z" fill="url(#c)" transform="translate(38 66)"/><path d="M76.65 66.77s-3.45 7.42 1.73 20.53c5.18 13.11 9.14 23.12 9.14 23.12l-27.26 7.76S51.81 87.82 47.49 82l29.16-15.23z" fill="#F1405A"/></g></g><path d="M41.77 93.57S52.62 106.76 62 105.25c9.38-1.51 16.82-18.19 18-24.53 1.18-6.34-38.23 12.85-38.23 12.85z" fill="#F1405A" fill-rule="nonzero"/><path fill="url(#d)" fill-rule="nonzero" style="mix-blend-mode:multiply" d="M59.46 92.78l2.79 5.81-18.21-2.12-2.48-2.66z"/><path d="M18.59 73s2.09 8.52 8.93 11.07l1.73-2.36-2-9.55-8.66.84z" fill="#F1405A" fill-rule="nonzero"/><path d="M18.59 73s2.09 8.52 8.93 11.07l1.73-2.36-2-9.55-8.66.84z" fill="url(#e)" fill-rule="nonzero" style="mix-blend-mode:multiply"/><path d="M18.62 47.26s.5 8.76 6.76 12.52l2.13-2-.26-9.78-8.63-.74zM18.28 60.7s.5 8.76 6.76 12.52l2.13-2-.25-9.76-8.64-.76z" fill="#F1405A" fill-rule="nonzero"/><path d="M18.62 47.26s.5 8.76 6.76 12.52l2.13-2-.26-9.78-8.63-.74z" fill="url(#f)" fill-rule="nonzero" style="mix-blend-mode:multiply"/><path d="M18.28 60.7s.5 8.76 6.76 12.52l2.13-2-.25-9.76-8.64-.76z" fill="url(#g)" fill-rule="nonzero" style="mix-blend-mode:multiply"/><path d="M59.82 20.4s13 34.11 12.12 47.4c-.88 13.29-14.72 8.67-14.72 8.67l2.6-56.07z" fill="#F1405A" fill-rule="nonzero"/><path d="M59.82 20.4s13 34.11 12.12 47.4c-.88 13.29-14.72 8.67-14.72 8.67l2.6-56.07z" fill="url(#h)" fill-rule="nonzero" style="mix-blend-mode:multiply"/><path d="M27 90.32L21.2 9.54A6.19 6.19 0 0 1 26.66 3l30-2.19a6.19 6.19 0 0 1 6.9 5.86l5.38 80.26a6.19 6.19 0 0 1-5.56 6.45l-29.6 2.71A6.19 6.19 0 0 1 27 90.32z" fill="#5E5993" fill-rule="nonzero"/><path fill="#DDDBF6" fill-rule="nonzero" d="M26.14 8.72l32.51-2.73 5.85 78.47-32.91 2.38z"/><path fill="url(#i)" fill-rule="nonzero" d="M58.65 5.88l5.85 78.58-32.91 2.38z"/><circle stroke="#DDDBF6" stroke-width=".25" cx="47.98" cy="90.2" r="3.21"/><circle stroke="#DDDBF6" stroke-width=".25" cx="47.98" cy="90.2" r="1"/><rect fill="#8B8A99" fill-rule="nonzero" opacity=".4" style="mix-blend-mode:multiply" transform="rotate(-4.23 47.15 65.245)" x="34.139" y="63.695" width="26.02" height="3.1" rx="1.55"/><rect fill="#8B8A99" fill-rule="nonzero" opacity=".4" style="mix-blend-mode:multiply" transform="rotate(-4.23 47.531 71.12)" x="34.521" y="69.57" width="26.02" height="3.1" rx="1.55"/><circle stroke="#DDDBF6" stroke-width=".25" cx="47.98" cy="90.2" r="3.21"/><path d="M63.1 52.2s4.62 5.49 15.64 9.16c3.1 1 4.71 3 2.34 15.88s-16.16 27.64-19.61 21C53 81.89 70.56 70.63 70.56 70.63s-6.38-2.34-11.44-10.84c-2.59-4.35-.6-10.4 3.98-7.59zM20.83 57.63a6.93 6.93 0 0 1 2.92-.4c2.59.15 8.45.85 9.05 4.22.77 4.34-6.23 6.39-10.9 4.23-4-1.86-5.16-6.46-1.07-8.05zM20.27 68.8a4.66 4.66 0 0 1 4.22-.39c2.57 1 7.38 3.15 7.94 6.3.76 4.29-5.75 4.54-10.43 2.38-3.67-1.71-4.79-6.23-1.73-8.29zM20.39 43.9a4.66 4.66 0 0 1 4.22-.39c2.57 1 7.38 3.15 7.94 6.3.77 4.34-5.74 4.53-10.41 2.37-3.69-1.7-4.81-6.18-1.75-8.28z" fill="#F1405A" fill-rule="nonzero"/><circle fill="#CC0027" fill-rule="nonzero" transform="rotate(-3.38 45.056 40.49)" cx="45.056" cy="40.49" r="13.3"/><circle fill="url(#j)" fill-rule="nonzero" opacity=".5" style="mix-blend-mode:multiply" transform="rotate(-3.38 45.056 40.49)" cx="45.056" cy="40.49" r="13.3"/><path d="M47.13 40.37l4.28-4.82a1.47 1.47 0 0 0-.12-2.07 1.47 1.47 0 0 0-2.07.12l-4.28 4.82-4.82-4.28a1.47 1.47 0 1 0-1.95 2.19L43 40.61l-4.28 4.82a1.47 1.47 0 1 0 2.19 1.95l4.28-4.82L50 46.84a1.47 1.47 0 0 0 2.07-.12 1.47 1.47 0 0 0-.12-2.07l-4.82-4.28z" fill="#FFF" fill-rule="nonzero"/></g></svg>