<svg width="104" height="104" viewBox="0 0 104 104" xmlns="http://www.w3.org/2000/svg" xmlns:xlink="http://www.w3.org/1999/xlink"><title>transfer-success</title><defs><circle id="a" cx="52.35" cy="52.35" r="51.65"/><linearGradient x1="0%" y1="49.978%" x2="100.06%" y2="49.978%" id="c"><stop stop-color="#078473" offset="0%"/><stop stop-color="#077F6F" offset="24%"/><stop stop-color="#067263" offset="50%"/><stop stop-color="#045C50" offset="78%"/><stop stop-color="#03453C" offset="100%"/></linearGradient><linearGradient x1="12230%" y1="-571%" x2="13206%" y2="-571%" id="d"><stop stop-color="#078473" offset="0%"/><stop stop-color="#077F6F" offset="24%"/><stop stop-color="#067263" offset="50%"/><stop stop-color="#045C50" offset="78%"/><stop stop-color="#03453C" offset="100%"/></linearGradient><linearGradient x1="45.874%" y1="93.903%" x2="54.052%" y2="38.998%" id="e"><stop stop-color="#FFF" offset="0%"/><stop stop-color="#FFFAFB" offset="13%"/><stop stop-color="#FDECEF" offset="29%"/><stop stop-color="#FBD5DC" offset="46%"/><stop stop-color="#F9B4C0" offset="63%"/><stop stop-color="#F58A9D" offset="81%"/><stop stop-color="#F15773" offset="100%"/><stop stop-color="#F15672" offset="100%"/></linearGradient><linearGradient x1="10296.11%" y1="-23990%" x2="10876.993%" y2="-23456%" id="f"><stop stop-color="#FFF" offset="0%"/><stop stop-color="#FFFAFB" offset="13%"/><stop stop-color="#FDECEF" offset="29%"/><stop stop-color="#FBD5DC" offset="46%"/><stop stop-color="#F9B4C0" offset="63%"/><stop stop-color="#F58A9D" offset="81%"/><stop stop-color="#F15773" offset="100%"/><stop stop-color="#F15672" offset="100%"/></linearGradient><linearGradient x1="11156%" y1="-15742.019%" x2="11587%" y2="-15381.058%" id="g"><stop stop-color="#FFF" offset="0%"/><stop stop-color="#FFFAFB" offset="13%"/><stop stop-color="#FDECEF" offset="29%"/><stop stop-color="#FBD5DC" offset="46%"/><stop stop-color="#F9B4C0" offset="63%"/><stop stop-color="#F58A9D" offset="81%"/><stop stop-color="#F15773" offset="100%"/><stop stop-color="#F15672" offset="100%"/></linearGradient><linearGradient x1="11322%" y1="-14871.973%" x2="11527%" y2="-14468.303%" id="h"><stop stop-color="#FFF" offset="0%"/><stop stop-color="#FFFAFB" offset="13%"/><stop stop-color="#FDECEF" offset="29%"/><stop stop-color="#FBD5DC" offset="46%"/><stop stop-color="#F9B4C0" offset="63%"/><stop stop-color="#F58A9D" offset="81%"/><stop stop-color="#F15773" offset="100%"/><stop stop-color="#F15672" offset="100%"/></linearGradient><linearGradient x1="15018%" y1="-375.036%" x2="14574%" y2="-342.205%" id="i"><stop stop-color="#FFF" offset="0%"/><stop stop-color="#FFFAFB" offset="13%"/><stop stop-color="#FDECEF" offset="29%"/><stop stop-color="#FBD5DC" offset="46%"/><stop stop-color="#F9B4C0" offset="63%"/><stop stop-color="#F58A9D" offset="81%"/><stop stop-color="#F15773" offset="100%"/><stop stop-color="#F15672" offset="100%"/></linearGradient><linearGradient x1="-20.693%" y1="50.381%" x2="80.539%" y2="49.454%" id="j"><stop stop-color="#D8D6EB" offset="0%"/><stop stop-color="#C5C4DB" offset="100%"/></linearGradient><linearGradient x1="0%" y1="50%" x2="99.954%" y2="50%" id="k"><stop stop-color="#FFF" offset="0%"/><stop stop-color="#FBFAFC" offset="12%"/><stop stop-color="#F1ECF5" offset="26%"/><stop stop-color="#E0D5E9" offset="40%"/><stop stop-color="#C8B4D7" offset="56%"/><stop stop-color="#A98AC1" offset="72%"/><stop stop-color="#8457A6" offset="88%"/><stop stop-color="#652D90" offset="100%"/></linearGradient><linearGradient x1="6647%" y1="43667%" x2="7674%" y2="43667%" id="l"><stop stop-color="#FFF" offset="0%"/><stop stop-color="#FFFAFB" offset="13%"/><stop stop-color="#FDECEF" offset="29%"/><stop stop-color="#FBD5DC" offset="46%"/><stop stop-color="#F9B4C0" offset="63%"/><stop stop-color="#F58A9D" offset="81%"/><stop stop-color="#F15773" offset="100%"/><stop stop-color="#F15672" offset="100%"/></linearGradient><linearGradient x1="6152%" y1="41220%" x2="7785%" y2="41220%" id="m"><stop stop-color="#D8D6EB" offset="0%"/><stop stop-color="#C5C4DB" offset="100%"/></linearGradient><linearGradient x1="48.164%" y1="96.843%" x2="53.183%" y2="-126.496%" id="n"><stop stop-color="#FFF" offset="0%"/><stop stop-color="#A6A8AB" offset="100%"/></linearGradient><linearGradient x1="71.175%" y1="83.523%" x2="31.067%" y2="15.658%" id="o"><stop stop-color="#FFF" offset="0%"/><stop stop-color="#FFFDF9" offset="12%"/><stop stop-color="#FFF6EA" offset="28%"/><stop stop-color="#FEEBCF" offset="46%"/><stop stop-color="#FDDCAB" offset="65%"/><stop stop-color="#FCC97D" offset="84%"/><stop stop-color="#FBB853" offset="100%"/></linearGradient><linearGradient x1="999.839%" y1="87157%" x2="1288.429%" y2="85901%" id="p"><stop stop-color="#FFF" offset="0%"/><stop stop-color="#FFFDF9" offset="12%"/><stop stop-color="#FFF6EA" offset="28%"/><stop stop-color="#FEEBCF" offset="46%"/><stop stop-color="#FDDCAB" offset="65%"/><stop stop-color="#FCC97D" offset="84%"/><stop stop-color="#FBB853" offset="100%"/></linearGradient><linearGradient x1="59.626%" y1="16.543%" x2="40.628%" y2="78.789%" id="q"><stop stop-color="#F0B81B" offset="0%"/><stop stop-color="#ED3D87" offset="100%"/></linearGradient><linearGradient x1="1152.21%" y1="43154%" x2="-40.044%" y2="44795%" id="r"><stop stop-color="#FFF" offset="0%"/><stop stop-color="#FFFDF9" offset="12%"/><stop stop-color="#FFF6EA" offset="28%"/><stop stop-color="#FEEBCF" offset="46%"/><stop stop-color="#FDDCAB" offset="65%"/><stop stop-color="#FCC97D" offset="84%"/><stop stop-color="#FBB853" offset="100%"/></linearGradient><linearGradient x1="89.749%" y1="44721%" x2="992.499%" y2="43150%" id="s"><stop stop-color="#FFF" offset="0%"/><stop stop-color="#FFFDF9" offset="12%"/><stop stop-color="#FFF6EA" offset="28%"/><stop stop-color="#FEEBCF" offset="46%"/><stop stop-color="#FDDCAB" offset="65%"/><stop stop-color="#FCC97D" offset="84%"/><stop stop-color="#FBB853" offset="100%"/></linearGradient></defs><g fill="none" fill-rule="evenodd"><mask id="b" fill="#fff"><use xlink:href="#a"/></mask><use fill="#158473" fill-rule="nonzero" xlink:href="#a"/><g mask="url(#b)" fill-rule="nonzero"><path d="M.91 9.52s6.19 8 7.65 22.31l9.12-.33S12.8 9.52.91 9.52z" fill="url(#c)" transform="translate(27 72)"/><path d="M55.84 75.17s-2.54 5.45 1.27 15.09l6.72 17-20 5.71s-6.21-22.32-9.38-26.63l21.39-11.17z" fill="#F1405A"/><path d="M50.31 4.89s4.64 9.61 5.84 17.21l4.85-.44S56.65 4.54 50.31 4.89z" fill="url(#d)" transform="translate(27 72)"/><path d="M92 72.69s-1.19 3 1.11 8l4.08 8.87-10.52 3.62s-4-11.72-5.77-13.93L92 72.69z" fill="#FC6581"/></g><g><g transform="translate(0 4)"><path d="M28.1 77.93s10.56 9.22 17.93 6.75c7.37-2.47 11.21-17 11.3-22.3.09-5.3-29.23 15.55-29.23 15.55z" fill="#F1405A" fill-rule="nonzero"/><path fill="url(#e)" fill-rule="nonzero" style="mix-blend-mode:multiply" d="M42.33 74.91l3.04 4.34-15.04.73-2.36-1.82z"/><path d="M6.56 64.39S9.4 71 15.28 72.16L16.36 70l-2.93-7.47-6.87 1.86z" fill="#F1405A" fill-rule="nonzero"/><path d="M6.56 64.39S9.4 71 15.28 72.16L16.36 70l-2.93-7.47-6.87 1.86z" fill="url(#f)" fill-rule="nonzero" style="mix-blend-mode:multiply"/><path d="M3.12 43.53s1.58 7 7.16 9.23l1.45-1.91L10.21 43l-7.09.53zM4.65 54.46s1.58 7 7.16 9.23l1.45-1.91-1.52-7.87-7.09.55z" fill="#F1405A" fill-rule="nonzero"/><path d="M3.12 43.53s1.58 7 7.16 9.23l1.45-1.91L10.21 43l-7.09.53z" fill="url(#g)" fill-rule="nonzero" style="mix-blend-mode:multiply"/><path d="M4.65 54.46s1.58 7 7.16 9.23l1.45-1.91-1.52-7.87-7.09.55z" fill="url(#h)" fill-rule="nonzero" style="mix-blend-mode:multiply"/><path d="M32.88 16.23S48 42.11 49.08 53c1.08 10.89-10.76 9-10.76 9l-5.44-45.77z" fill="#F1405A" fill-rule="nonzero"/><path d="M32.88 16.23S48 42.11 49.08 53c1.08 10.89-10.76 9-10.76 9l-5.44-45.77z" fill="url(#i)" fill-rule="nonzero" style="mix-blend-mode:multiply"/><path d="M15.66 77.29L.13 12.63a5.08 5.08 0 0 1 3.54-6l24-5.8A5.08 5.08 0 0 1 34 4.6l15.2 64.29a5.08 5.08 0 0 1-3.64 6L22 81a5.08 5.08 0 0 1-6.34-3.71z" fill="#5E5993" fill-rule="nonzero"/><path fill="#DDDBF6" fill-rule="nonzero" d="M4.03 11.3l25.96-6.58 15.3 62.78-26.34 6.35z"/><path fill="url(#j)" fill-rule="nonzero" d="M29.98 4.63L45.29 67.5l-26.34 6.35z"/><circle stroke="#DDDBF6" stroke-width=".25" transform="rotate(-9.43 32.685 74.364)" cx="32.685" cy="74.364" r="2.64"/><circle stroke="#DDDBF6" stroke-width=".25" transform="rotate(-9.43 32.685 74.364)" cx="32.685" cy="74.364" r="1"/><rect fill="#8B8A99" fill-rule="nonzero" opacity=".4" style="mix-blend-mode:multiply" transform="rotate(-13.65 28.63 54.274)" x="17.95" y="52.999" width="21.36" height="2.55" rx="1.27"/><rect fill="#8B8A99" fill-rule="nonzero" opacity=".4" style="mix-blend-mode:multiply" transform="rotate(-13.65 29.748 58.97)" x="19.068" y="57.695" width="21.36" height="2.55" rx="1.27"/><path d="M39.82 41.55s4.48 3.82 13.9 5.32c2.65.42 4.22 1.81 4 12.55C57.5 70.16 48.38 84 44.68 79.07c-9.09-12.1 3.65-23.6 3.65-23.6s-5.49-1-10.73-7.24c-2.67-3.17-1.87-8.34 2.22-6.68zM6.31 51.63a5.69 5.69 0 0 1 2.31-.71c2.11-.23 7-.45 7.9 2.2 1.21 3.41-4.19 6-8.26 4.89-3.5-1.01-5.05-4.54-1.95-6.38zM7.35 60.76a3.83 3.83 0 0 1 3.36-.88c2.21.43 6.4 1.55 7.28 4 1.21 3.41-4 4.44-8.11 3.32-3.21-.85-4.73-4.36-2.53-6.44zM4.1 40.57a3.83 3.83 0 0 1 3.36-.88c2.21.43 6.4 1.55 7.28 4 1.21 3.41-4 4.44-8.11 3.32-3.21-.85-4.73-4.37-2.53-6.44z" fill="#F1405A" fill-rule="nonzero"/><circle fill="#158473" fill-rule="nonzero" transform="rotate(-12.81 23.629 34.484)" cx="23.629" cy="34.484" r="10.92"/><circle fill="url(#k)" fill-rule="nonzero" opacity=".5" style="mix-blend-mode:multiply" transform="rotate(-12.81 23.61 34.4)" cx="23.609" cy="34.401" r="10.92"/><path d="M22.34 40.45c.52.3 1.185.132 1.5-.38l6.54-10.43A1.18 1.18 0 0 0 30 28a1.18 1.18 0 0 0-1.63.37l-6 9.57L18 35.22a1.22 1.22 0 0 0-1.56.18 1.18 1.18 0 0 0 .25 1.79l5.65 3.26z" fill="#FFF" fill-rule="nonzero"/><path d="M75.1 69.37s4.21 7.35 8.91 7.39c4.7.04 9.75-7.5 10.85-10.51 1.1-3.01-19.76 3.12-19.76 3.12z" fill="#FC6581" fill-rule="nonzero"/><path d="M83.82 70.44l.89 3.08-7-2a4.91 4.91 0 0 1-2.72-2l8.83.92z" fill="url(#l)" fill-rule="nonzero" style="mix-blend-mode:multiply"/><path d="M65.46 57.38s.32 4.34 3.45 6.16l1-1-.2-4.84-4.25-.32zM67.61 44.79s-.48 4.33 2.27 6.68l1.21-.8.69-4.8-4.17-1.08z" fill="#F1405A" fill-rule="nonzero"/><path d="M66.33 51.34s-.48 4.33 2.27 6.66l1.21-.8.69-4.8-4.17-1.06zM90 35.07s3.53 17.76 2 24.19c-1.53 6.43-7.92 3-7.92 3L90 35.07z" fill="#F1405A" fill-rule="nonzero"/><path d="M68.12 66.55l3.88-40a3.07 3.07 0 0 1 3.22-2.75l14.84 1.41a3.07 3.07 0 0 1 2.89 3.44l-4 39.7a3.07 3.07 0 0 1-3.25 2.69L71 69.93a3.07 3.07 0 0 1-2.88-3.38z" fill="#5E5993" fill-rule="nonzero"/><path fill="#DDDBF6" fill-rule="nonzero" d="M74.48 26.56l16.13 1.36-3.64 38.88-16.3-1.57z"/><path fill="url(#m)" fill-rule="nonzero" d="M90.62 27.87L86.97 66.8l-16.3-1.57z"/><path d="M84.66 42.26a33.84 33.84 0 0 1-12 2L73 41.6l11.66.66z" fill="url(#n)" fill-rule="nonzero" style="mix-blend-mode:multiply"/><circle stroke="#DDDBF6" stroke-width=".5" transform="rotate(-80.38 78.424 68.234)" cx="78.424" cy="68.234" r="1.59"/><circle stroke="#DDDBF6" stroke-width=".5" transform="rotate(-80.38 78.424 68.234)" cx="78.424" cy="68.234" r="1"/><rect fill="#8B8A99" fill-rule="nonzero" opacity=".4" style="mix-blend-mode:multiply" transform="rotate(5.39 80.078 55.958)" x="73.623" y="55.188" width="12.91" height="1.54" rx=".77"/><rect fill="#8B8A99" fill-rule="nonzero" opacity=".4" style="mix-blend-mode:multiply" transform="rotate(5.39 79.777 58.857)" x="73.322" y="58.087" width="12.91" height="1.54" rx=".77"/><path d="M89 50.9s1.81 3.07 6.89 5.78c1.43.76 2.06 1.86-.17 8s-10.19 12.18-11.33 8.65c-2.81-8.71 6.74-12.76 6.74-12.76a12.52 12.52 0 0 1-4.7-6.25c-.95-2.38.57-5.18 2.57-3.42zM67.83 50a3.44 3.44 0 0 1 1.46 0c1.25.29 4.07 1.12 4.08 2.81 0 2.18-3.58 2.61-5.68 1.17-1.81-1.14-1.99-3.49.14-3.98zM66.63 55.47a2.31 2.31 0 0 1 2.1.16c1.18.68 3.35 2.15 3.36 3.74 0 2.18-3.18 1.74-5.29.3-1.66-1.14-1.8-3.45-.17-4.2zM68.76 43.3a2.31 2.31 0 0 1 2.1.16c1.18.68 3.35 2.15 3.36 3.74 0 2.18-3.18 1.74-5.29.3-1.67-1.15-1.84-3.5-.17-4.2z" fill="#FC6581" fill-rule="nonzero"/><path d="M57.24 38.24s15.85 5.55 27.42 4l.91-10.47s-13.37-.44-25.31-6.13l-3.02 12.6z" fill="#FDBD1D" fill-rule="nonzero"/><path d="M57.24 38.24s15.85 5.55 27.42 4l.91-10.47s-13.37-.44-25.31-6.13l-3.02 12.6z" fill="url(#o)" fill-rule="nonzero" style="mix-blend-mode:multiply"/><path d="M58.08 38.06s15.1 5.14 26.21 3.72l.86-9.51s-12.78-.64-24.15-5.9l-2.92 11.69z" stroke="url(#p)" opacity=".8" style="mix-blend-mode:multiply"/><path d="M76.23 35.66a3.51 3.51 0 0 0-3.67-2.9 3 3 0 0 0-3 3.38 3.5 3.5 0 0 0 3.82 2.93 3 3 0 0 0 2.85-3.41z" fill="#FFF" fill-rule="nonzero"/><path d="M86 41.89c-.37 1.06-20.12 20.7-33.46-9.24C40.6 5.78 21.31 21 21.31 21" stroke="url(#q)" stroke-linecap="round"/><path d="M34.16 23s18 11.21 32.65 12.51l4-12.64S54.48 18.65 41.35 8.36L34.16 23z" fill="#FDBD1D" fill-rule="nonzero"/><path d="M34.16 23s18 11.21 32.65 12.51l4-12.64S54.48 18.65 41.35 8.36L34.16 23z" fill="url(#r)" fill-rule="nonzero" opacity=".8" style="mix-blend-mode:multiply"/><path d="M35.25 23s17.17 10.52 31.24 11.83l3.68-11.47S54.61 19 42 9.43L35.25 23z" stroke="url(#s)" opacity=".8" style="mix-blend-mode:multiply"/><path d="M58.25 25.07a4.43 4.43 0 0 0-3.71-4.58 3.83 3.83 0 0 0-4.6 3.33 4.42 4.42 0 0 0 3.89 4.66 3.82 3.82 0 0 0 4.42-3.41z" fill="#FFF" fill-rule="nonzero"/></g></g></g></svg>