<svg width="161" height="41" viewBox="0 0 161 41" xmlns="http://www.w3.org/2000/svg" xmlns:xlink="http://www.w3.org/1999/xlink"><title>LogoPermataOnWhite_2</title><defs><path id="a" d="M.274 15.06H7.12V.022H.274z"/><path id="c" d="M18.114 32.157V.391H.332v31.766z"/><path id="e" d="M17.722 25.817V.1H.29v25.717z"/></defs><g fill="none" fill-rule="evenodd"><path d="M83.74 38.402c.012-.25.027-.651.04-1.198V26.68l-.034-1.021a5.211 5.211 0 0 0-.03-.442 1.022 1.022 0 0 0-.05-.217.858.858 0 0 0-.512-.554c-.24-.102-.595-.15-1.055-.154v-.357l5.948-.002c.865.004 1.645.06 2.342.174.698.111 1.26.267 1.69.466 1.242.596 1.856 1.6 1.85 3.024.015 2.04-1.313 3.342-4.062 3.678l-.46.075c.618.023 1.453.23 1.843.322.385.09.763.232 1.135.427 1.458.74 2.176 1.924 2.162 3.563.007 1.988-.952 3.279-2.9 3.89-.424.123-.959.22-1.603.29a19.9 19.9 0 0 1-2.108.108H82.1v-.358c.688-.009 1.16-.115 1.37-.364a.772.772 0 0 0 .19-.284c.041-.108.067-.293.08-.542zm1.83-13.975v6.678h2.322c2.7-.017 4.097-1.149 4.112-3.417.019-2.203-1.454-3.278-4.31-3.261H85.57zm6.9 11.055c-.017-1.555-.574-2.657-1.684-3.273-.338-.172-.766-.306-1.281-.402a9.55 9.55 0 0 0-1.702-.144h-2.232v7.796h2.232c1.618.007 2.8-.298 3.529-.937.368-.309.649-.723.843-1.246.194-.523.29-1.123.294-1.794zM103.06 39.493c-.12-.24-.205-.527-.241-1.262l-.011-.216-.143.164a5.9 5.9 0 0 1-.5.505 6.65 6.65 0 0 1-.569.44c-.469.35-.921.595-1.355.738a4.545 4.545 0 0 1-1.467.206c-.95.006-1.678-.222-2.198-.67a2.76 2.76 0 0 1-.688-1 3.457 3.457 0 0 1-.255-1.3c.01-1.715 1.052-2.82 3.182-3.31a18.52 18.52 0 0 1 1.785-.324c.628-.085 1.34-.155 2.136-.21l.083-1.494c0-.511-.024-.926-.073-1.24a2.89 2.89 0 0 0-.247-.833c-.315-.623-.96-.92-1.89-.92-1.495-.01-2.304.71-2.388 2.137a1.986 1.986 0 0 1-.06.484.387.387 0 0 1-.145.208c-.149.102-.386.16-.725.164-.733.01-1.007-.21-.995-.58.005-.387.132-.762.387-1.123.257-.362.612-.678 1.072-.945.827-.464 1.886-.7 3.185-.705 1.422.005 2.374.33 2.895.952.211.261.367.585.468.977.102.39.154.887.153 1.49l-.002.126-.012.585-.03 1.544-.023 2.122-.022 1.027c.002.484.022.852.056 1.265.032.402.174.85.493.969.33.124.65.173 1.259.177.446-.008.79-.06 1.023-.16.265-.114.429-.357.5-.7.068-.335.097-.846.09-1.53v-5.99c.015-.815-.079-1.389-.308-1.689-.225-.292-.643-.418-1.218-.41v-.32l3.164-.232v2.545l.164-.298c.468-.84.999-1.437 1.59-1.794.592-.358 1.332-.536 2.224-.526 1.342-.02 2.276.434 2.822 1.342.201.305.346.67.433 1.1.087.429.132.976.128 1.645v4.628c-.008.69.02 1.204.087 1.538.068.344.228.585.495.695.221.094.735.143 1.173.154.41-.011.728-.064.945-.159.259-.115.416-.357.483-.7.064-.335.092-.845.084-1.528V26.37c.008-.624-.018-1.086-.08-1.384-.064-.312-.223-.525-.483-.619-.225-.08-.563-.117-1.007-.12v-.317l3.29-.17a81.61 81.61 0 0 0-.127 4.373v7.31l3.623-4.01c.513-.574.794-1.056.798-1.442.026-.538-.51-.78-1.393-.825v-.318h4.71v.323a3.543 3.543 0 0 0-.739.157 3.6 3.6 0 0 0-.7.338 7.747 7.747 0 0 0-.608.406 5.397 5.397 0 0 0-.59.54c-.227.232-.556.584-.988 1.058l-1.195 1.301 3.13 4.977c.358.59.687 1.006.989 1.242.288.226.656.372 1.099.44v.325h-2.864c-.078-.16-.187-.37-.325-.627l-.456-.84-.349-.634-2.316-3.815-1.822 2.06-.004 1.153c-.008.683.02 1.194.085 1.528.067.344.227.585.49.7.23.1.57.153 1.016.16v.315h-9.679v-.314c.655-.018 1.106-.126 1.286-.37.072-.092.127-.199.167-.319.037-.12.061-.275.072-.465.013-.15.026-.366.04-.649.017-.285.025-.48.027-.585v-4.495c.004-1.108-.114-1.929-.362-2.45-.378-.82-1.059-1.232-2.025-1.236-1.078-.003-1.937.515-2.573 1.54-.24.386-.427.827-.561 1.318a5.61 5.61 0 0 0-.204 1.452v3.87c-.009.69.02 1.204.085 1.538.068.344.229.585.496.695.233.098.58.148 1.032.156v.314h-4.76c-.422.015-1.227.037-1.626.031-.418-.006-.62-.05-1-.08-.339-.1-.48-.188-.592-.413m-5.614-2.463c.008.73.183 1.32.534 1.767.35.449.825.68 1.41.69a3.399 3.399 0 0 0 1.675-.466 3.384 3.384 0 0 0 1.232-1.21c.182-.319.315-.73.397-1.23.083-.495.124-1.112.124-1.852v-1.147c-1.06.094-1.82.195-2.37.313a5.772 5.772 0 0 0-1.473.51c-1.012.508-1.521 1.39-1.53 2.625M4.312 33.209v3.984c-.008.639.028 1.114.108 1.424.082.31.257.514.528.614.27.1.686.158 1.246.167v.557H0v-.557c.527-.01.918-.067 1.172-.167.253-.1.417-.305.492-.614.074-.31.108-.785.1-1.424V26.718c.007-.64-.025-1.115-.097-1.425-.073-.311-.23-.517-.472-.62-.242-.104-.615-.164-1.117-.182v-.558h5.9c1.989-.008 3.445.346 4.37 1.064.926.718 1.383 1.847 1.372 3.392.007 2.17-.83 3.59-2.509 4.263-.437.171-.996.307-1.674.406-.68.098-1.435.15-2.265.15h-.96zm0-.621h1.02c1.225-.005 2.126-.297 2.704-.879.315-.336.553-.778.715-1.324.162-.544.244-1.167.246-1.868-.007-2.638-1.15-3.96-3.43-3.963H4.312v8.034zM21.691 33.88h-7.205c.007.777.052 1.43.134 1.955.082.525.215 1.005.395 1.44.599 1.41 1.524 2.115 2.775 2.115a3.247 3.247 0 0 0 1.927-.633c.576-.417 1.056-1.019 1.438-1.8l.51.34c-.502 1.01-1.115 1.75-1.839 2.224-.723.472-1.606.707-2.649.702-1.64-.022-3.149-.551-4.093-1.588-.946-1.038-1.427-2.46-1.446-4.263.019-1.817.485-3.254 1.398-4.313.911-1.058 2.368-1.6 3.938-1.622 1.044.002 2.051.242 2.767.72.716.478 1.243 1.177 1.583 2.098.111.305.196.654.253 1.05.057.393.095.918.114 1.576m-7.185-.618h4.507a16.666 16.666 0 0 0-.104-1.591 5.35 5.35 0 0 0-.242-1.079c-.381-1.12-.966-1.676-1.754-1.667-.884.01-1.544.635-1.98 1.88-.11.323-.2.677-.267 1.06-.068.384-.122.85-.16 1.397M22.152 28.741l3.997-.278c.022.403.038.74.048 1.014.011.276.016.516.016.726v.644c.869-1.604 1.918-2.414 3.147-2.427.531.01.963.167 1.294.469.332.303.503.691.513 1.164-.007.393-.151.708-.43.945-.28.236-.646.359-1.1.364-.546.018-.879-.21-1-.687-.078-.295-.16-.495-.244-.601-.085-.107-.208-.156-.373-.151h-.042c-.418.036-.815.372-1.191 1.011-.17.318-.297.669-.382 1.054-.085.385-.128.829-.128 1.33v3.974c-.008.635.023 1.101.092 1.403.068.3.225.496.469.59.244.092.624.144 1.14.156v.514h-5.91v-.514c.481.001.838-.046 1.07-.143.233-.096.383-.298.452-.603.07-.308.1-.775.094-1.403v-5.951c.02-.886-.068-1.46-.264-1.726-.195-.266-.618-.385-1.268-.357v-.517zM35.916 28.463l.021 2.127c.861-1.432 2.095-2.155 3.7-2.17 1.632-.01 2.64.741 3.019 2.257.461-.782.989-1.354 1.58-1.716.593-.365 1.285-.546 2.076-.54 1.251.006 2.173.422 2.765 1.245.23.313.396.693.494 1.144.099.451.146 1.037.144 1.756v4.726c-.008.628.024 1.095.093 1.401.069.307.22.509.451.605.233.097.59.144 1.071.141v.516h-5.762v-.516c.461.003.803-.044 1.026-.14.224-.097.37-.299.435-.606.069-.306.098-.773.092-1.4v-4.706c.005-1.128-.133-1.943-.412-2.443-.28-.501-.73-.746-1.353-.736-.748-.014-1.38.38-1.892 1.182a3.833 3.833 0 0 0-.66 2.17v4.532c-.007.628.024 1.095.091 1.401.069.307.216.509.442.605.226.097.573.144 1.04.141v.516H38.68v-.516c.46.003.802-.044 1.026-.14.223-.097.368-.299.435-.606.067-.306.098-.773.09-1.4v-4.727c.011-2.127-.563-3.18-1.722-3.158-.721.027-1.325.372-1.812 1.036-.487.666-.74 1.495-.76 2.487v4.361c-.006.635.024 1.106.091 1.412.067.305.212.506.435.6.224.093.565.138 1.026.135v.516h-5.762v-.516c.482.003.838-.042 1.071-.136.232-.093.383-.294.452-.6.07-.305.1-.776.093-1.41V31.32c.022-.875-.065-1.44-.26-1.7-.196-.26-.633-.38-1.313-.363v-.517l4.146-.278z" fill="#000"/><g transform="translate(62.367 25.235)"><mask id="b" fill="#fff"><use xlink:href="#a"/></mask><path d="M4.08 4.211v7.175c-.001.466.016.853.05 1.16.035.306.088.563.162.773.09.24.23.431.417.576.189.142.397.215.624.219.455-.007.95-.23 1.49-.665l.297.535c-.854.725-1.825 1.082-2.912 1.075-1.174-.017-1.975-.413-2.404-1.181a2.482 2.482 0 0 1-.196-.583 5.838 5.838 0 0 1-.096-.884c-.018-.37-.027-.87-.027-1.498V4.211H.274v-.644c.463-.018.855-.116 1.177-.295.323-.18.603-.46.843-.844.188-.292.344-.616.465-.972C2.88 1.1 2.988.658 3.08.13L4.144.023a42.36 42.36 0 0 0-.057 1.92c-.005.411-.007.939-.007 1.58h2.573v.688H4.08z" fill="#000" mask="url(#b)"/></g><path d="M62.63 39.501v.455c-.621.04-.872.04-1.527.04-.519 0-1.056-.008-1.502-.177-.276-.105-.43-.195-.635-.413-.144-.23-.235-.244-.281-.885-.549.6-1.12 1.04-1.714 1.323a4.382 4.382 0 0 1-1.922.418c-1.02-.011-1.818-.295-2.395-.854-.576-.559-.868-1.327-.88-2.304-.003-1.844 1.131-2.99 3.402-3.437 1.025-.2 2.187-.337 3.488-.41v-1.395c.01-1.118-.107-1.893-.351-2.324-.245-.431-.681-.638-1.308-.618-.666-.015-1.14.23-1.424.73-.103.173-.179.37-.226.594a7.24 7.24 0 0 0-.115.93c-.016.384-.126.657-.33.817-.202.162-.524.24-.967.238-.985-.008-1.48-.338-1.488-.989.003-.38.12-.744.349-1.088.228-.346.552-.649.97-.91.885-.551 2.048-.823 3.487-.817 1.463-.006 2.512.287 3.147.882.285.272.495.62.63 1.04.134.423.2.964.198 1.624l-.021 1.869-.021 1.868c-.018.613-.025 1-.022 1.16-.007.775.017 1.34.073 1.696.056.357.117.515.348.708.406.235.755.228 1.037.23m-3.966-4.094v-1.654c-1.523.104-2.603.389-3.24.852-.637.466-.947 1.19-.928 2.175.007.773.164 1.387.471 1.84.307.454.725.686 1.251.695.433-.003.833-.13 1.199-.378.366-.248.654-.595.864-1.04.137-.271.235-.602.296-.996.059-.393.089-.891.087-1.494M80.937 39.501v.455c-.622.04-.873.042-1.527.042-.52 0-1.055-.008-1.502-.177-.276-.105-.43-.193-.635-.415-.144-.23-.236-.243-.282-.883-.549.598-1.12 1.039-1.713 1.322a4.405 4.405 0 0 1-1.922.419c-1.02-.012-1.819-.297-2.396-.854-.575-.56-.868-1.328-.879-2.305-.003-1.843 1.13-2.988 3.402-3.436 1.024-.202 2.186-.337 3.487-.41v-1.396c.01-1.117-.107-1.893-.35-2.325-.245-.431-.682-.636-1.308-.616-.667-.015-1.141.23-1.425.73-.103.173-.178.37-.226.594a7.125 7.125 0 0 0-.113.93c-.018.382-.128.655-.331.817-.202.162-.525.24-.967.237-.986-.008-1.481-.337-1.488-.988.003-.38.12-.744.348-1.088.229-.346.553-.65.97-.91.886-.552 2.048-.824 3.487-.817 1.463-.007 2.513.286 3.147.881.286.273.496.62.63 1.041.134.423.2.964.198 1.622l-.02 1.87-.022 1.868c-.017.613-.025 1-.021 1.16-.008.775.016 1.341.072 1.697.057.357.117.515.349.708.406.234.754.226 1.037.227M76.97 35.41v-1.656c-1.522.105-2.602.39-3.24.854-.638.466-.946 1.19-.927 2.175.006.773.163 1.386.47 1.84.307.454.725.685 1.252.695.433-.004.832-.13 1.199-.379a2.51 2.51 0 0 0 .863-1.039c.137-.272.235-.603.296-.996.06-.393.089-.892.087-1.494" fill="#000"/><path fill="#0096B8" d="M124.717 13.081l-.042.828 15.71 18.621.565.092.071-.036.277-.515-6.701-22.659-1.137-.774z"/><path fill="#005675" d="M124.675 13.909l15.71 18.621.564.092-11.585-17.809z"/><path fill="#0BBBEF" d="M133.46 8.638l-4.006 4.764 1.636.722 3.507-4.711z"/><path fill="#007290" d="M124.675 13.909l4.689.904.09-1.411-4.738-.319zM131.089 14.124l9.932 18.462.276-.516-6.7-22.656z"/><g transform="translate(141.993 7.798)"><mask id="d" fill="#fff"><use xlink:href="#c"/></mask><path fill="#81B73E" mask="url(#d)" d="M7.936.39l10.16 4.72.018 1.331L1.442 31.956l-.76.201-.113-.05-.237-.576L7.052.888z"/></g><g transform="translate(142.386 14.139)"><mask id="f" fill="#fff"><use xlink:href="#e"/></mask><path fill="#69931D" mask="url(#f)" d="M10.954.683L.29 25.817l.76-.202L17.721.1z"/></g><path fill="#277933" d="M149.044 8.687l-6.72 30.64.239.576 8.859-26.148z"/><path fill="#AECC53" d="M152.956 13.002l.384 1.82 6.767-.583-.018-1.33z"/><path fill="#69931D" d="M149.045 8.686l2.375 5.067 1.536-.751-3.026-4.812z"/><path fill="#E4032E" d="M134.412.93l.406-.788 13.004-.141.841.88-6.23 21.035-.396.231-.012-.001-.427-.29z"/><path fill="#B51227" d="M134.413.928l5.039 2.535.936-1.12-5.572-2.2z"/><path fill="#791B15" d="M134.412.93l7.186 20.925.424.29-2.57-18.682-5.04-2.535z"/><path fill="#B51227" d="M141.896 3.466l.14 18.681.397-.233 6.23-21.032z"/><path fill="#EA5160" d="M147.823 0l-7.434 2.344 1.508 1.121 6.766-2.583z"/></g></svg>